<?xml version="1.0" encoding="UTF-8"?>
<svg version="1.1" xmlns="http://www.w3.org/2000/svg" width="644" height="411">
<path d="M0 0 C212.52 0 425.04 0 644 0 C644 135.63 644 271.26 644 411 C431.48 411 218.96 411 0 411 C0 275.37 0 139.74 0 0 Z " fill="#00B4D8" transform="translate(0,0)"/>
<path d="M0 0 C-0.22779797 3.22309897 -0.47125538 6.4416306 -0.7578125 9.66015625 C-1.06006526 12.81689165 -1.06006526 12.81689165 -0.8671875 15.24609375 C-0.8125 17 -0.8125 17 -2 20 C-5.17203148 21.88081421 -8.53973906 23.0138513 -12.0078125 24.234375 C-14.27109333 25.10418489 -16.43661025 26.11244568 -18.625 27.15625 C-19.42043213 27.53209229 -20.21586426 27.90793457 -21.03540039 28.29516602 C-22.61794981 29.04775761 -24.19546509 29.81104185 -25.76733398 30.58569336 C-31.22719513 33.12214545 -31.22719513 33.12214545 -34.5703125 32.59375 C-38.05642214 30.30704143 -41.24480873 27.73952229 -44.4375 25.0625 C-51.98864059 18.73832508 -57.53394139 15.21009395 -67.7109375 15.5546875 C-79.06499669 17.09193542 -86.83053594 27.44366713 -94.35546875 35.29077148 C-97.1123645 38.15612587 -99.93393747 40.95507087 -102.7734375 43.73828125 C-107.08157705 47.9728672 -111.15562733 52.33935642 -115 57 C-115.58523438 57.65355469 -116.17046875 58.30710937 -116.7734375 58.98046875 C-121.36185682 64.72137837 -121.95620232 70.02974366 -121.64453125 77.28515625 C-120.59898006 83.31133311 -117.80334138 87.32060808 -114 92 C-113.27039063 92.89847656 -112.54078125 93.79695313 -111.7890625 94.72265625 C-110.41661514 96.40477133 -109.02298096 98.06999495 -107.6015625 99.7109375 C-105.77652336 102.31940807 -105.31961021 103.84409868 -105 107 C-105.77270508 109.67553711 -105.77270508 109.67553711 -107.01953125 112.52734375 C-107.46490234 113.56697266 -107.91027344 114.60660156 -108.36914062 115.67773438 C-108.84544922 116.75345703 -109.32175781 117.82917969 -109.8125 118.9375 C-110.73742529 121.07085749 -111.66065627 123.20495051 -112.58203125 125.33984375 C-112.99686768 126.28206787 -113.4117041 127.22429199 -113.83911133 128.19506836 C-115.03822514 131.09235934 -116.04247705 134.01507297 -117 137 C-117.64960693 137.07516846 -118.29921387 137.15033691 -118.96850586 137.2277832 C-121.95941677 137.57954559 -124.94836977 137.94592576 -127.9375 138.3125 C-128.95908203 138.43044922 -129.98066406 138.54839844 -131.03320312 138.66992188 C-138.4297379 139.59153483 -145.80298848 140.51343549 -151.8125 145.1875 C-158.10503358 153.27790032 -158.60583411 159.74419186 -158.56640625 169.7734375 C-158.57570412 171.75182114 -158.57570412 171.75182114 -158.58518982 173.77017212 C-158.59555163 176.55236379 -158.59109587 179.3340427 -158.57641602 182.11621094 C-158.5592551 185.65572582 -158.5827089 189.19361303 -158.61790562 192.7329464 C-158.64002697 195.48194839 -158.63840275 198.2305699 -158.6301403 200.97963333 C-158.62893772 202.91040551 -158.64872852 204.84115481 -158.66908264 206.77182007 C-158.58062946 215.20340878 -157.24265901 222.18770321 -151.52383423 228.67436218 C-146.11425648 233.70278624 -137.56904369 233.81086433 -130.5625 234.8125 C-129.14882049 235.02885471 -127.73540454 235.24693894 -126.32226562 235.46679688 C-122.88432361 235.997859 -119.44339391 236.50536004 -116 237 C-115.72119995 237.77694214 -115.72119995 237.77694214 -115.43676758 238.56958008 C-114.56671545 240.98561698 -113.69072127 243.39942027 -112.8125 245.8125 C-112.49732422 246.6794751 -112.18214844 247.5464502 -111.85742188 248.43969727 C-109.7808165 254.07928148 -107.49881791 259.51948888 -104.75 264.87109375 C-103.80447674 267.55500091 -103.8219037 268.40239423 -105 271 C-106.7039199 273.13561773 -108.42729833 275.15994052 -110.25 277.1875 C-117.70688713 285.84287988 -121.98922333 291.75643134 -121.46484375 303.71484375 C-120.77130064 308.61627025 -119.24074227 311.32622752 -116 315 C-114.7625 316.41925781 -114.7625 316.41925781 -113.5 317.8671875 C-110.73370177 320.97645974 -107.88378719 323.99981267 -105 327 C-104.27039063 327.75925781 -103.54078125 328.51851563 -102.7890625 329.30078125 C-99.10547997 333.04988205 -95.26879882 336.52644053 -91.2734375 339.9375 C-89.46096671 341.5818034 -87.74632147 343.2504123 -86.0390625 345 C-85.51666992 345.53463867 -84.99427734 346.06927734 -84.45605469 346.62011719 C-83.42625617 347.68171924 -82.40308443 348.7498029 -81.38769531 349.82519531 C-77.3193961 354.01884065 -73.70368434 356.62765638 -67.8515625 357.43359375 C-66.78679687 357.43488281 -65.72203125 357.43617188 -64.625 357.4375 C-63.56539063 357.45683594 -62.50578125 357.47617187 -61.4140625 357.49609375 C-53.66300274 356.36979559 -48.07820993 351.75277202 -42.25 346.8125 C-40.96876865 345.72946312 -39.6824733 344.65238195 -38.390625 343.58203125 C-37.83407227 343.10999268 -37.27751953 342.6379541 -36.70410156 342.15161133 C-34.72675053 340.8153413 -33.37559851 340.26526674 -31 340 C-28.86865234 340.64916992 -28.86865234 340.64916992 -26.5859375 341.73046875 C-25.74160156 342.12169922 -24.89726562 342.51292969 -24.02734375 342.91601562 C-23.15207031 343.33560547 -22.27679688 343.75519531 -21.375 344.1875 C-19.65464667 344.99562362 -17.93329101 345.80161692 -16.2109375 346.60546875 C-15.35798096 347.01877441 -14.50502441 347.43208008 -13.6262207 347.85791016 C-11.01799552 349.06655677 -11.01799552 349.06655677 -8.20776367 349.76318359 C-5.40615616 350.56306467 -3.35071147 351.26967838 -1 353 C0.75110724 356.98038371 1.07919217 360.9453639 1.4375 365.25 C1.67853077 367.46438965 1.92707382 369.67797616 2.18359375 371.890625 C2.27181396 372.87063477 2.36003418 373.85064453 2.45092773 374.86035156 C3.0587884 378.90531832 3.0587884 378.90531832 6 386 C-127.65 386 -261.3 386 -399 386 C-399 197 -399 197 -365 157 C-364.46375 156.34 -363.9275 155.68 -363.375 155 C-359.66328646 150.48139222 -355.49346362 146.72981596 -351 143 C-350.24847656 142.360625 -349.49695313 141.72125 -348.72265625 141.0625 C-322.66567115 119.43984786 -290.66648118 108.7106454 -257 110 C-256.87367188 108.9996875 -256.74734375 107.999375 -256.6171875 106.96875 C-253.52810607 85.63377931 -242.68959291 65.14903595 -230 48 C-229.59378418 47.43587402 -229.18756836 46.87174805 -228.76904297 46.29052734 C-200.82927557 7.6714623 -159.45581242 -15.31160372 -113 -23 C-74.7839049 -29.06951861 -32.74446183 -20.57107344 0 0 Z " fill="#00B4D8" transform="translate(399,25)"/>
<path d="M0 0 C212.52 0 425.04 0 644 0 C644 61.05 644 122.1 644 185 C642.68 183.35 641.36 181.7 640 180 C637.3644016 178.6822008 635.0455463 178.60858108 632.109375 178.31640625 C630.92472656 178.19330078 629.74007812 178.07019531 628.51953125 177.94335938 C626.02236715 177.69105523 623.52497211 177.44102557 621.02734375 177.19335938 C619.24263672 177.00676758 619.24263672 177.00676758 617.421875 176.81640625 C616.33487305 176.70756104 615.24787109 176.59871582 614.12792969 176.48657227 C605.98191397 175.21940014 605.98191397 175.21940014 603.3203125 171.9140625 C601.6088698 168.13673631 600.23078919 164.29172432 598.875 160.375 C596.04430852 152.3834699 592.68867278 144.78780497 588.84521484 137.23193359 C585.10274022 129.71279907 585.10274022 129.71279907 586 126 C587.60077458 123.78127935 589.16064482 121.87282178 591 119.875 C592.0088666 118.72341409 593.01534981 117.56973614 594.01953125 116.4140625 C594.52178223 115.84075195 595.0240332 115.26744141 595.54150391 114.67675781 C602.60167106 106.99438731 602.60167106 106.99438731 606.0625 97.4375 C605.41892805 91.79386902 601.62450009 88.45536065 597.70068359 84.65820312 C595.66228668 82.67072224 593.67004888 80.64112401 591.67578125 78.609375 C585.18097258 72.02370631 578.71250885 65.48293201 571.68603516 59.45947266 C570.23307648 58.20175662 568.82988467 56.88696347 567.4375 55.5625 C564.03203792 53.37951148 562.00467979 53.56425764 558 54 C555.48307424 55.59210187 553.46571936 57.0703936 551.25 59 C550.02704374 60.00772774 548.80307311 61.01422566 547.578125 62.01953125 C546.67610352 62.77290771 546.67610352 62.77290771 545.75585938 63.54150391 C543.21365991 65.65316959 540.63040579 67.68594805 538 69.6875 C537.175 70.33074219 536.35 70.97398438 535.5 71.63671875 C532.30686942 73.37797277 530.60287952 73.49293128 527 73 C524.47032653 71.89827569 522.15400698 70.76220613 519.75 69.4375 C513.75131544 66.28022305 507.70650902 63.54859722 501.375 61.125 C500.62959961 60.83939209 499.88419922 60.55378418 499.11621094 60.25952148 C495.97683293 59.07354214 492.89648104 57.97066559 489.6640625 57.0546875 C486.50704192 55.80484064 485.73793801 54.87720879 484 52 C483.41577148 49.27026367 483.41577148 49.27026367 483.12109375 46.16796875 C483.00443359 45.03939453 482.88777344 43.91082031 482.76757812 42.74804688 C482.65865234 41.57306641 482.54972656 40.39808594 482.4375 39.1875 C481.73775343 28.8657432 481.73775343 28.8657432 479 19 C475.46788488 16.38938167 472.91178473 15.61939056 468.5546875 15.58007812 C467.49008301 15.56416626 466.42547852 15.54825439 465.32861328 15.53186035 C463.61907471 15.53155823 463.61907471 15.53155823 461.875 15.53125 C460.69534668 15.52363647 459.51569336 15.51602295 458.30029297 15.50817871 C455.80894078 15.49738472 453.31754337 15.49452173 450.82617188 15.49902344 C447.01355725 15.49999654 443.20294956 15.45834608 439.390625 15.4140625 C436.9687542 15.40885607 434.5468764 15.4061673 432.125 15.40625 C430.98530762 15.38985474 429.84561523 15.37345947 428.67138672 15.35656738 C422.29157963 15.36061261 422.29157963 15.36061261 416.8046875 18.34960938 C414.06507369 22.37304654 413.7724172 25.72998625 413.38671875 30.49609375 C413.2155957 32.41711914 413.2155957 32.41711914 413.04101562 34.37695312 C412.86151606 36.40841677 412.68732791 38.43970386 412.52856445 40.47290039 C412.37278191 42.44034093 412.19253799 44.40579609 412.01171875 46.37109375 C411.91334717 47.54599365 411.81497559 48.72089355 411.71362305 49.93139648 C410.87573368 53.53434944 409.91533939 54.77527154 407 57 C404.91967773 57.93798828 404.91967773 57.93798828 402.68359375 58.5703125 C401.84570312 58.82232422 401.0078125 59.07433594 400.14453125 59.33398438 C399.25121094 59.59501953 398.35789062 59.85605469 397.4375 60.125 C388.73846423 62.80396283 380.9837898 66.28939787 373.13061523 70.88720703 C367.70555263 73.98230915 367.70555263 73.98230915 364.3515625 74.06640625 C361.16397274 72.62087136 358.56666605 70.63476186 355.875 68.4375 C354.72449635 67.53186817 353.57344543 66.62693121 352.421875 65.72265625 C350.26087837 64.0071069 348.10634664 62.2839316 345.953125 60.55859375 C342.08969929 57.57564489 339.07547455 55.27342573 334.3125 54.0625 C326.87495076 56.16746676 321.05514464 63.79429574 315.69140625 69.17578125 C315.03921616 69.82701462 314.38702606 70.47824799 313.71507263 71.1492157 C312.35349864 72.51011535 310.99316176 73.8722538 309.6340332 75.2355957 C307.54687726 77.32816325 305.45436368 79.41526824 303.36132812 81.50195312 C302.03353295 82.83040819 300.70604753 84.15917293 299.37890625 85.48828125 C298.75295059 86.11221268 298.12699493 86.7361441 297.48207092 87.37898254 C293.9163821 90.96422788 292.24671264 92.76643679 291.25 97.75 C291.28762401 105.52562931 298.19686533 111.45562033 303 117 C304.40964081 118.65500491 305.80808231 120.31972166 307.1875 122 C307.73792969 122.639375 308.28835938 123.27875 308.85546875 123.9375 C310.54804531 126.98760384 310.50644723 128.50671045 310 132 C308.51045338 135.69521402 306.69347565 139.20755677 304.875 142.75 C300.82292261 150.87818537 297.37075906 158.89215355 294.75146484 167.59082031 C293.16633229 172.83366771 293.16633229 172.83366771 291 175 C288.80444336 175.48657227 288.80444336 175.48657227 286.08984375 175.81640625 C285.09919922 175.94080078 284.10855469 176.06519531 283.08789062 176.19335938 C282.04826172 176.31517578 281.00863281 176.43699219 279.9375 176.5625 C278.92494141 176.68818359 277.91238281 176.81386719 276.86914062 176.94335938 C268.61791536 177.95946771 268.61791536 177.95946771 265.38720703 178.17138672 C264.60071777 178.22697754 263.81422852 178.28256836 263.00390625 178.33984375 C262.32271729 178.37327881 261.64152832 178.40671387 260.93969727 178.44116211 C258.08017336 179.26500732 256.87981151 180.72143377 255 183 C254.39810162 185.66523637 254.39810162 185.66523637 254.48242188 188.62304688 C254.46350891 190.31500183 254.46350891 190.31500183 254.44421387 192.0411377 C254.45231079 193.25474976 254.46040771 194.46836182 254.46875 195.71875 C254.4649231 196.96877808 254.46109619 198.21880615 254.45715332 199.50671387 C254.45443086 202.15005905 254.45980047 204.79192486 254.47851562 207.43505859 C254.50130646 210.81817491 254.48818017 214.20002197 254.46422577 217.58309174 C254.44627316 220.81585633 254.45885299 224.04846882 254.46875 227.28125 C254.46065308 228.49486206 254.45255615 229.70847412 254.44421387 230.9588623 C254.45682251 232.08683228 254.46943115 233.21480225 254.48242188 234.37695312 C254.48560425 235.36860474 254.48878662 236.36025635 254.49206543 237.38195801 C255.13906171 240.71676435 256.38646281 241.89939064 259 244 C261.22225146 244.78952965 261.22225146 244.78952965 263.6328125 245.01171875 C264.52226562 245.12966797 265.41171875 245.24761719 266.328125 245.36914062 C267.25109375 245.47419922 268.1740625 245.57925781 269.125 245.6875 C270.02476562 245.80416016 270.92453125 245.92082031 271.8515625 246.04101562 C277.1962971 246.72062627 282.54195016 247.24739214 287.9140625 247.65649414 C290 248 290 248 292.875 249.75 C295.46619026 253.71299686 296.50003656 257.50778377 297.76953125 262.046875 C299.17001698 266.79453391 301.07567063 271.31967911 303 275.875 C303.49850464 277.06923584 303.49850464 277.06923584 304.00708008 278.28759766 C305.56588483 281.94486714 307.1715712 285.34229429 309.3125 288.6953125 C311 292 311 292 311.0703125 295.04296875 C309.70723248 298.8088504 307.53291611 301.40243049 304.875 304.3125 C303.87561195 305.45903422 302.87691529 306.60617146 301.87890625 307.75390625 C300.16928866 309.68967266 298.44702317 311.61158292 296.71484375 313.52734375 C293.69503994 317.05561555 291.55111185 319.84311026 291.125 324.5625 C291.52643932 328.26163797 292.6041293 330.09959814 295.10620117 332.82055664 C295.74020844 333.51376007 296.3742157 334.2069635 297.0274353 334.9211731 C300.03664631 338.09249053 303.07933164 341.22235565 306.17578125 344.30859375 C306.82701462 344.96078384 307.47824799 345.61297394 308.1492157 346.28492737 C309.51011535 347.64650136 310.8722538 349.00683824 312.2355957 350.3659668 C314.32816325 352.45312274 316.41526824 354.54563632 318.50195312 356.63867188 C319.83040819 357.96646705 321.15917293 359.29395247 322.48828125 360.62109375 C323.42417839 361.56002724 323.42417839 361.56002724 324.37898254 362.51792908 C328.54760697 366.77611807 328.54760697 366.77611807 334.0625 368.4375 C343.24176271 367.41758192 350.42246834 359.24243831 357.1796875 353.390625 C362.39304205 348.97154885 362.39304205 348.97154885 366.25 349.15234375 C370.25616807 350.05790466 373.45101995 351.58836239 377 353.5625 C384.85758287 357.74084475 393.01267575 360.61771741 401.45703125 363.38500977 C402.40707031 363.69881592 403.35710937 364.01262207 404.3359375 364.3359375 C405.18720215 364.60970215 406.0384668 364.8834668 406.91552734 365.16552734 C409 366 409 366 411 368 C412.09146921 371.21733736 412.22948424 374.43755045 412.4375 377.8125 C412.81582681 382.88551854 413.23798808 387.94567046 413.8125 393 C414.00779297 394.8253125 414.00779297 394.8253125 414.20703125 396.6875 C415.09897422 400.41344895 416.35941867 402.26385477 419 405 C421.52824176 406.26412088 423.2907137 406.13382222 426.12060547 406.14526367 C427.72269363 406.15483345 427.72269363 406.15483345 429.35714722 406.16459656 C431.09461716 406.16626579 431.09461716 406.16626579 432.8671875 406.16796875 C434.64659225 406.17296135 434.64659225 406.17296135 436.46194458 406.17805481 C438.97543957 406.18312538 441.48894131 406.1854631 444.00244141 406.18530273 C447.8520008 406.18748695 451.70127269 406.20563535 455.55078125 406.22460938 C457.98958235 406.22754368 460.42838482 406.22952823 462.8671875 406.23046875 C464.02145233 406.23765427 465.17571716 406.24483978 466.36495972 406.25224304 C467.97650436 406.2476281 467.97650436 406.2476281 469.62060547 406.24291992 C470.56499481 406.24434494 471.50938416 406.24576996 472.48239136 406.24723816 C475.17470327 405.98284352 476.7452432 405.47769948 479 404 C481.39101897 400.41347154 481.3909473 398.37544781 481.67578125 394.1015625 C481.78238642 392.72129085 481.88983481 391.34108411 481.99804688 389.9609375 C482.15872145 387.7934252 482.31243108 385.62607937 482.45092773 383.45703125 C482.58885323 381.35731277 482.75532414 379.26135724 482.92578125 377.1640625 C483.01255127 375.91061035 483.09932129 374.6571582 483.1887207 373.36572266 C484.18606606 369.22807502 485.73665136 367.6591269 489 365 C491.69921875 363.91796875 491.69921875 363.91796875 494.6875 363.1875 C500.48975947 361.56657233 505.8772972 359.46156522 511.375 357 C512.12354248 356.66766357 512.87208496 356.33532715 513.64331055 355.99291992 C517.12476122 354.41636276 520.41944248 352.77188061 523.6640625 350.75 C527.38287277 348.79914871 528.89576221 348.15837149 533 349 C536.01442442 350.77453484 538.67196667 352.91255279 541.375 355.125 C542.82005244 356.27376471 544.26536398 357.42220357 545.7109375 358.5703125 C547.85821581 360.27667522 549.98762289 361.98945179 552.07519531 363.76855469 C552.74389648 364.31672852 553.41259766 364.86490234 554.1015625 365.4296875 C554.68502441 365.92452637 555.26848633 366.41936523 555.86962891 366.92919922 C559.06982397 368.53773183 561.47090092 368.38515915 565 368 C567.71284563 366.55462762 567.71284563 366.55462762 570.09375 364.328125 C571.03605469 363.50505859 571.97835937 362.68199219 572.94921875 361.83398438 C578.01345874 357.17623581 582.92664902 352.37005678 587.7734375 347.48730469 C589.51858231 345.73130208 591.27435305 343.98642389 593.03125 342.2421875 C594.15689285 341.11522507 595.28191624 339.98764347 596.40625 338.859375 C597.18434021 338.08735748 597.18434021 338.08735748 597.97814941 337.29974365 C601.81364901 333.41436822 604.63710297 330.1370603 605.5625 324.6875 C604.77520116 319.52631872 602.33349849 316.8970023 599 313 C595.98547584 309.34508469 592.9843647 305.67958602 590 302 C589.505 301.39800781 589.01 300.79601562 588.5 300.17578125 C586.68548743 297.77533233 585.97593614 296.40547611 586.15625 293.3671875 C587.23977795 289.04310837 589.11027341 285.39602952 591.125 281.4375 C595.10901161 273.44096297 598.05430127 265.4035698 600.35205078 256.76733398 C601.57537644 252.60762826 602.22544195 250.54144892 605.85546875 248.00390625 C611.57753374 246.23315094 617.75389692 245.97117691 623.6875 245.4375 C626.10873909 245.21413846 628.52936158 244.98396 630.94921875 244.74609375 C632.01487061 244.64997803 633.08052246 244.5538623 634.1784668 244.45483398 C639.43371512 243.60768268 640.71424239 242.38101014 644 238 C644 295.09 644 352.18 644 411 C584.1858191 411.20151517 584.1858191 411.20151517 559.18945312 411.24414062 C553.4772942 411.25393041 547.76513595 411.26403294 542.05297852 411.2746582 C541.3370243 411.27597695 540.62107009 411.27729569 539.88342029 411.2786544 C528.31553633 411.30041797 516.74777629 411.33984629 505.17996588 411.38576398 C493.3136989 411.43247453 481.44749692 411.46028392 469.58114177 411.47044247 C462.91365118 411.47669546 456.24640747 411.4923871 449.57901573 411.52865028 C443.30899463 411.56247733 437.03937171 411.57307976 430.76926804 411.56553841 C428.46293667 411.5669189 426.15659259 411.57692986 423.85033989 411.59602737 C420.71110639 411.62075696 417.57339352 411.61497814 414.43412781 411.60127258 C413.51292969 411.61583679 412.59173157 411.630401 411.64261836 411.64540654 C409.3201796 411.61783313 407.25466643 411.55619103 405 411 C399.76484705 404.93556279 399.40358487 395.74015133 398.375 388.0625 C398.2409375 387.09248047 398.106875 386.12246094 397.96875 385.12304688 C397.64133338 382.7492764 397.31853591 380.37497563 397 378 C395.99582031 377.63648438 394.99164063 377.27296875 393.95703125 376.8984375 C392.5750971 376.39177925 391.19361953 375.88387464 389.8125 375.375 C388.73005005 374.97764648 388.73005005 374.97764648 387.62573242 374.57226562 C381.78772198 372.38887155 376.29425918 369.79981739 370.76953125 366.90625 C368.08106896 365.77189067 368.08106896 365.77189067 365.5625 366.5078125 C362.15724685 368.49074955 359.21966696 370.86934503 356.1875 373.375 C347.73364731 380.1147175 342.4554627 383.39512022 331.34375 383.62890625 C323.1061878 382.07955168 317.59285869 375.96910039 312 370.125 C307.43767639 365.41119299 302.82699622 360.89174732 297.85253906 356.61230469 C277.85249618 339.20583616 277.85249618 339.20583616 276.62890625 328.86328125 C276.43468661 318.47824263 278.26533495 313.20649963 285.0390625 305.515625 C285.5846582 304.89494141 286.13025391 304.27425781 286.69238281 303.63476562 C287.80103461 302.39292118 288.92781149 301.16698891 290.07324219 299.95898438 C293.09619276 296.77425718 293.09619276 296.77425718 294.09765625 292.65625 C293.73542969 291.7796875 293.37320312 290.903125 293 290 C292.59297852 288.99888184 292.59297852 288.99888184 292.17773438 287.97753906 C290.83123352 284.72693731 289.4031869 281.51426007 287.97070312 278.30078125 C285.62720192 272.90598106 284.10847675 267.780329 283 262 C282.02571045 261.93159912 282.02571045 261.93159912 281.03173828 261.86181641 C252.39466934 259.73237804 252.39466934 259.73237804 246.60018921 253.90368652 C239.97454543 246.02140066 239.2552137 238.01144277 239.3359375 228.03125 C239.33115387 226.71515747 239.32637024 225.39906494 239.32144165 224.04309082 C239.31411941 221.27272797 239.32462201 218.50317762 239.34814453 215.73291016 C239.37663216 212.20909173 239.36020259 208.68717806 239.33028221 205.16342926 C239.30771115 201.76505648 239.32358516 198.36717661 239.3359375 194.96875 C239.32581635 193.71743286 239.31569519 192.46611572 239.30526733 191.17687988 C239.40723761 183.48916775 240.41737086 177.34002351 245 171 C250.98965612 165.43771896 257.04670514 163.89534098 265 163 C266.49361732 162.81613886 267.98709761 162.63116258 269.48046875 162.4453125 C273.65069118 161.93484959 277.82394767 161.46019803 282 161 C282.20753906 160.2471875 282.41507812 159.494375 282.62890625 158.71875 C284.78287395 151.29251828 287.41623552 144.41917765 290.80102539 137.47070312 C292.05290628 134.79084816 292.98632419 132.50841818 293.06640625 129.53125 C291.39054185 125.55337407 288.78389798 122.37499463 286.125 119 C276.55996716 106.68587222 276.55996716 106.68587222 276.4375 98.75 C276.37369141 96.88601562 276.37369141 96.88601562 276.30859375 94.984375 C277.12057579 86.17927263 285.40856902 79.03991496 291.1875 73 C291.89841797 72.23816406 292.60933594 71.47632812 293.34179688 70.69140625 C298.61110847 65.12963051 298.61110847 65.12963051 302 64 C302.70914693 62.68876667 303.37198152 61.35196709 304 60 C310.89661902 51.62304608 320.13015818 41.3847801 331.15234375 39.4453125 C343.44828435 38.72792973 350.60220256 45.35612276 359.45703125 53.046875 C362.89171847 55.77989432 362.89171847 55.77989432 367 57 C370.42103111 55.95712269 373.55200932 54.39966845 376.75 52.8125 C378.47188945 51.98137715 380.19584111 51.15451255 381.921875 50.33203125 C382.68081055 49.95796143 383.43974609 49.5838916 384.22167969 49.19848633 C388.04886109 47.54755193 392.04581087 46.31806304 396 45 C397.485 35.1 397.485 35.1 399 25 C397.35 24.34 395.7 23.68 394 23 C392.67889186 22.37591427 391.36481725 21.736699 390.05859375 21.08203125 C347.19482671 -0.07346295 299.45131092 -4.75981856 253.734375 10.31640625 C229.57220607 18.71181998 208.53676091 32.46682169 190 50 C188.69289062 51.21042969 188.69289062 51.21042969 187.359375 52.4453125 C165.18357654 73.6707196 147.32775 104.60760796 142 135 C140.18242187 135.03867187 140.18242187 135.03867187 138.328125 135.078125 C96.84698054 136.32803553 63.60688363 152.85903659 34.859375 182.18359375 C14.24579669 204.20958391 5.35614483 231.7583025 1 261 C0.67 261 0.34 261 0 261 C0 174.87 0 88.74 0 0 Z " fill="#FCFDFD" transform="translate(0,0)"/>
<path d="M0 0 C4.16342617 3.49098277 8.10852028 7.21017056 12 11 C12.84292603 11.79374023 12.84292603 11.79374023 13.70288086 12.60351562 C18.0920618 16.8236737 21.59839352 21.2915675 24.9375 26.375 C25.70900391 27.54748291 25.70900391 27.54748291 26.49609375 28.74365234 C34.73279668 41.54400348 39.81927171 54.15135259 43 69 C43.3393457 70.22976562 43.67869141 71.45953125 44.02832031 72.7265625 C45.0573057 76.83356072 45.3223706 80.83526702 45.3359375 85.05859375 C45.3459227 86.17972313 45.3459227 86.17972313 45.35610962 87.32350159 C45.36617167 88.89915538 45.37092865 90.47485123 45.37060547 92.05053711 C45.37493279 94.40099144 45.41119016 96.74949179 45.44921875 99.09960938 C45.55646765 113.29401485 43.08361592 126.63240817 37.3125 139.6875 C36.97001221 140.47656738 36.62752441 141.26563477 36.2746582 142.07861328 C30.51710301 154.93250827 22.38533973 165.58901686 13 176 C12.34515625 176.73863281 11.6903125 177.47726562 11.015625 178.23828125 C-8.20639601 198.73355579 -37.10562685 210.36228752 -64.8046875 211.28125 C-98.31214356 211.93013027 -126.72513149 202.43690392 -151.53515625 179.390625 C-171.8693298 159.66873243 -186.61838162 131.89842483 -187.3984375 103.125 C-187.41329837 101.09646111 -187.4100758 99.06951916 -187.39111328 97.04101562 C-187.37500492 95.00062276 -187.39108313 92.96220927 -187.41015625 90.921875 C-187.45967823 59.39651214 -173.14245283 31.00208024 -151.875 8.5 C-110.70801385 -31.4519883 -45.40657949 -34.74804726 0 0 Z " fill="#FDFEFE" transform="translate(519,117)"/>
<path d="M0 0 C0.33 0 0.66 0 1 0 C1.08451416 0.65258789 1.16902832 1.30517578 1.25610352 1.97753906 C6.50066924 41.20015892 22.86996171 74.88685129 54.53271484 99.50268555 C74.19502194 114.14909797 96.86582216 122.34210155 121 126 C121 126.33 121 126.66 121 127 C81.07 127 41.14 127 0 127 C0 85.09 0 43.18 0 0 Z " fill="#FAFBFB" transform="translate(0,284)"/>
<path d="M0 0 C3.38804613 1.24985848 6.19454497 2.66110145 9.125 4.765625 C9.90367432 5.31919678 10.68234863 5.87276855 11.48461914 6.44311523 C12.31469482 7.03938721 13.14477051 7.63565918 14 8.25 C21.28658154 13.41809915 28.62945067 18.48235702 36.0625 23.4375 C36.94188232 24.03425537 37.82126465 24.63101074 38.72729492 25.24584961 C42.32321996 27.66784606 45.82330336 30.01623799 49.765625 31.8359375 C52.85940786 33.33523227 54.83518309 34.32893414 57 37 C58.84819455 42.5192659 58.83329963 48.48014294 57 54 C54.0159189 57.91434119 50.31566842 59.74620737 46 62 C44.18923903 63.08839105 42.40418568 64.21230709 40.61865234 65.34155273 C39.31787679 66.16395205 38.01206814 66.97843781 36.70166016 67.78540039 C28.56264394 72.80829805 20.71583049 78.26337359 12.8359375 83.6796875 C11.99643555 84.25557617 11.15693359 84.83146484 10.29199219 85.42480469 C8.88834097 86.38947849 7.48729571 87.35797512 6.09082031 88.33300781 C2.22028644 91 2.22028644 91 0 91 C-2.34718951 73.55616903 -2.34718951 73.55616903 1.16601562 68.23339844 C4.50677152 65.13312497 8.57460227 63.24894158 12.63671875 61.25878906 C17.12127424 58.87011467 21.1763244 55.81312454 25.3125 52.875 C26.92925516 51.74118394 28.55004217 50.61308381 30.17578125 49.4921875 C30.86583252 49.01120605 31.55588379 48.53022461 32.2668457 48.03466797 C34 47 34 47 36 47 C32.31553724 43.07118632 28.48840782 40.10528853 23.984375 37.171875 C23.32794006 36.73740051 22.67150513 36.30292603 21.99517822 35.85528564 C19.91704762 34.48131244 17.83377314 33.11539693 15.75 31.75 C13.65306235 30.36869155 11.55721266 28.98575336 9.4619751 27.60186768 C8.16221556 26.7441732 6.86126373 25.8882823 5.559021 25.03436279 C1.10852223 22.10852223 1.10852223 22.10852223 0 21 C-0.08685603 19.43827255 -0.10702219 17.87270656 -0.09765625 16.30859375 C-0.09443359 15.36435547 -0.09121094 14.42011719 -0.08789062 13.44726562 C-0.07951172 12.45404297 -0.07113281 11.46082031 -0.0625 10.4375 C-0.05798828 9.44041016 -0.05347656 8.44332031 -0.04882812 7.41601562 C-0.03700007 4.94395151 -0.02051849 2.47200482 0 0 Z " fill="#00B4D8" transform="translate(481,165)"/>
<path d="M0 0 C2.81842313 16.93628401 2.81842313 16.93628401 -1.4765625 23.12896729 C-6.29800603 27.83740824 -12.16634426 31.02862164 -18 34.3125 C-19.73861861 35.36607565 -21.4730585 36.42657975 -23.203125 37.49414062 C-27.4247247 40.07861843 -31.69203309 42.56244692 -36 45 C-32.92208653 48.30370456 -29.63919932 50.73274385 -25.87890625 53.22265625 C-25.00624367 53.80278725 -25.00624367 53.80278725 -24.11595154 54.39463806 C-22.26764916 55.62162042 -20.41508625 56.84199813 -18.5625 58.0625 C-17.32199919 58.88566633 -16.0817622 59.70923039 -14.84179688 60.53320312 C-8.6433626 64.74288627 -8.6433626 64.74288627 -2.13964844 68.43652344 C0 70 0 70 0.56762695 72.36010742 C0.54144287 73.26607666 0.51525879 74.1720459 0.48828125 75.10546875 C0.47216797 76.08837891 0.45605469 77.07128906 0.43945312 78.08398438 C0.37661133 79.62022461 0.37661133 79.62022461 0.3125 81.1875 C0.28994141 82.22326172 0.26738281 83.25902344 0.24414062 84.32617188 C0.18516846 86.88556404 0.10292567 89.44205951 0 92 C-11.70409673 84.6665718 -23.18615761 76.98918542 -34.70996094 69.37744141 C-37.44930816 67.56848337 -40.18946813 65.76076153 -42.9296875 63.953125 C-43.76619843 63.3999762 -44.60270935 62.84682739 -45.46456909 62.2769165 C-46.24953766 61.75917664 -47.03450623 61.24143677 -47.84326172 60.70800781 C-48.56892838 60.22813919 -49.29459503 59.74827057 -50.04225159 59.25386047 C-51.65004644 58.22413142 -53.31113268 57.27807775 -54.98364258 56.35717773 C-57 55 -57 55 -58.33203125 51.33203125 C-59.10284908 46.29493127 -59.13186801 41.70089414 -57 37 C-51.977918 31.46082376 -45.05985459 27.98566814 -38.63243103 24.31898499 C-31.56227112 20.25743155 -24.91766654 15.58285965 -18.21682739 10.94668579 C-14.86446836 8.62822959 -11.50281984 6.32396327 -8.1328125 4.03125 C-7.54114792 3.62272293 -6.94948334 3.21419586 -6.33988953 2.79328918 C-2.22779777 0 -2.22779777 0 0 0 Z " fill="#00B4D8" transform="translate(415,165)"/>
<path d="M0 0 C6.27 0 12.54 0 19 0 C15.58215228 14.67664019 10.8897976 29.00659297 6.375 43.375 C3.8073021 51.55195629 1.39034517 59.76993268 -1 68 C-1.50370117 69.73419189 -1.50370117 69.73419189 -2.01757812 71.50341797 C-3.57333459 76.86092611 -5.1284229 82.21862781 -6.68237305 87.57666016 C-9.43261298 97.05775234 -12.20471008 106.53208251 -15 116 C-21.27 116 -27.54 116 -34 116 C-33.3729514 111.61065977 -32.8730377 108.11884453 -31.60473633 104.0246582 C-31.18343193 102.65075676 -31.18343193 102.65075676 -30.75361633 101.24909973 C-30.44949326 100.27615463 -30.14537018 99.30320953 -29.83203125 98.30078125 C-29.51473557 97.27051315 -29.19743988 96.24024506 -28.87052917 95.17875671 C-27.85612016 91.88845649 -26.83455841 88.60043122 -25.8125 85.3125 C-24.81342016 82.08203679 -23.81583502 78.85111484 -22.81843567 75.62013245 C-22.16220499 73.49500892 -21.50521551 71.37011955 -20.84745789 69.24546814 C-18.50230885 61.66213342 -16.20285553 54.06606855 -13.95002747 46.45478821 C-12.58667058 41.86857549 -11.12607075 37.33452547 -9.5625 32.8125 C-5.89391126 22.02253311 -3.01371858 10.98661095 0 0 Z " fill="#00B4D8" transform="translate(455,153)"/>
</svg>
